<?xml version="1.0" encoding="UTF-8"?><svg id="Layer_2" xmlns="http://www.w3.org/2000/svg" viewBox="0 0 372.44 103.05"><defs><style>.cls-1{fill:#8a8c8f;}.cls-2{fill:#be1e2d;}</style></defs><g id="Layer_1-2"><g><g><path class="cls-2" d="M37.93,20.85c-4.36-1-7.56-4.7-13.41-3.09-.55-1.79,2.36-2.85,2.75-4.81-1.24-3.45-4.91-4.49-5.84-8.25,8.7-6.61,25.54,6.97,16.5,16.16"/><path class="cls-2" d="M73.33,9.51c2.15-.3,6.23-.64,6.53,2.06,.48,4.33-8.53,3.64-13.41,4.12-5.78,.57-10.09,2.44-13.4,2.75-3.49,.32-6.68-.6-6.87-2.41-.32-2.93,5.98-4.19,8.94-4.47,6.54-.61,12.72-1.31,18.22-2.06"/><path class="cls-2" d="M56.49,31.51c.28,3.73,.54,7.48,1.72,10.31,8.64-.64,11.09-7.48,13.41-14.44-5.98,.43-11.02,1.81-15.12,4.12m14.44,13.75c-5.78,.64-13.69-.86-14.78,4.47-7.05-1.89-7.33-10.55-9.63-17.19,1.13-2.77,1.81-5.99,4.13-7.56,1.71,.35,2.58,1.55,4.12,2.06,6.69-2.68,24.19-8.19,25.44,1.72,.86,6.84-7.76,10.64-9.28,16.5"/><path class="cls-2" d="M60.27,75.16c-2.21,1.34-4.52,2.58-5.84,4.81-.05,.86,.54,1.06,.69,1.72,2.02-.27,3.99-.59,5.5-1.38-.66-1.93,1.3-4.48-.34-5.16m-7.91-5.16c.09,3.12,1.06,5.35,1.72,7.91,2.87-2.52,7.81-2.96,7.22-8.94-3.36-.04-5.92,.73-8.94,1.03m14.44-.34c1.29-.2,2.29-.69,2.75-1.72-.44-.48-1.49-.34-2.41-.35-.4,.41-.39,1.21-.34,2.06m-16.5-9.97c.38,2.37,1.05,4.45,1.72,6.53,3.22-.45,6.02-1.31,9.28-1.72v-7.9c-4.34,.35-7.07,2.32-11,3.09m16.5-4.12v7.91c4.77,.63,10.66-1.97,11.69,2.41-2.59,3.48-9.54,2.61-12.03,6.19-.32,2.31-.43,4.84-.34,7.56,2.63,.13,6.69,1.3,4.81,3.78,1.03,.46,2.63,.35,4.12,.34,3.69-8.57,6.65-17.86,7.22-29.56-5.37-1.11-10.83,.61-15.47,1.38m24.4-1.03c-.07,7.04-1.94,13.35-4.12,20.28-2.13,6.75-4.18,19.9-13.41,18.22-3.65-.66-4.9-7.27-8.94-8.25-4.8-1.16-8.61,1.65-13.06,3.09-6.07-7.91-7.67-20.29-7.9-34.03,2.5-.21,3.38,1.21,5.15,1.72,10.61-2.93,33.62-10.61,42.28-1.03"/><path class="cls-2" d="M23.49,57.97c1.92-1.75,5.91-3.25,4.12-7.56-1.08,2.59-3.8,5.36-4.12,7.56m22.69-19.59c-.99,1.63-1.16,3.42-2.41,5.5-.05,.08-1.06,.18-1.37,.69-.26,.42-.03,1.31-.34,1.72-.56,.72-2.05,1.1-2.41,1.72-.5,.87-.19,2.49-.69,3.44-1.14,2.16-3.78,3.02-4.47,5.5-.37,1.34,.06,3.03,0,4.47-.18,3.93-.81,8.58-1.03,13.4-.33,7.32,1.11,15.47,0,21.31-1.4,7.35-6.92,3.15-7.56-2.75-.96-8.85,1.26-20.59,1.03-28.87-2.43,2.08-5.01,4.93-8.25,7.91-3.82,3.51-7.05,9.36-14.09,6.87-3.64-3.72,2.24-9,4.81-12.72,6.2-8.97,12.89-19.61,17.87-28.53-5.78,2.82-12.62,7.55-19.25,10.66-5.63-.4-10.61-5.97-6.53-11,1.55-.29,.9,1.62,2.75,1.03,5.01-1.58,10.04-2.84,15.81-5.16,4.7-1.89,12.17-6.88,16.5-5.16,2.55,5.92-3.02,11.59-1.72,19.59,3.93-1.69,7.59-6.62,11.34-9.62"/><g><path class="cls-1" d="M124.18,77.77c6,0,8.58-1.63,8.58-9.09V25.89h-.69c-11.83,0-15.86,8.83-18.78,18.44l-.34-.09,1.37-18.95h49.65l1.46,18.95-.43,.09c-2.83-9.6-6.86-18.44-18.78-18.44h-.69v42.79c0,7.46,2.57,9.09,8.58,9.09v.51h-29.93v-.51Z"/><path class="cls-1" d="M171.26,51.78c0-16.04,12.52-27.53,29.58-27.53s29.58,11.49,29.58,27.53-12.61,27.53-29.58,27.53-29.58-11.49-29.58-27.53Zm45.36,0c0-13.55-3.34-26.84-15.78-26.84s-15.86,13.46-15.86,26.84,3.43,26.84,15.86,26.84,15.78-13.29,15.78-26.84Z"/></g><path class="cls-1" d="M234.72,36.95c-1.89-4.37-4.72-11.15-11.15-11.15v-.51h28.12v.51c-6.09,0-6.17,4.46-4.2,9.6l10.98,27.44,9.09-23.07-1.03-2.83c-2.49-6.26-5.75-11.15-10.98-11.15v-.51h29.24v.51c-6.6,0-7.03,5.4-5.06,10.89l9.52,25.64,6.17-16.55c1.97-5.32,2.92-9.52,2.92-12.52,0-4.63-2.31-7.46-7.46-7.46v-.51h22.3v.51c-5.23,0-8.58,2.83-11.15,7.12-2.06,3.34-3.77,7.97-5.83,13.29l-12.61,32.5h-.51l-15.01-37.65-15.09,37.65h-.6l-17.67-41.76Z"/><path class="cls-1" d="M310.87,77.77c9.86,0,10.89-5.06,10.89-23.24v-15.52c0-8.75-2.23-13.21-10.29-13.21v-.51h18.7l30.44,33.53v-9.78c0-18.18-1.03-23.24-10.89-23.24v-.51h22.72v.51c-9.86,0-10.98,5.06-10.98,23.24v29.84l-.43,.09-38.42-42.28v17.84c0,18.18,1.11,23.24,10.98,23.24v.51h-22.72v-.51Z"/></g><rect class="cls-1" x="101.76" width="1" height="103.05"/></g></g></svg>